<svg viewBox="0 0 800 600" height="600" width="800" xmlns="http://www.w3.org/2000/svg" version="1.1"><g transform-origin="center" transform="scale(1, 1) rotate(0)"><rect x="0" y="0" width="800" height="600" fill="#ffffffff"></rect><linearGradient id="linear-gradient-r5"><stop offset="0%" stop-color="#ff8c73ff" stop-opacity="100%"></stop><stop offset="100%" stop-color="#c720a0ff" stop-opacity="100%"></stop></linearGradient><filter id="strokeStyle" x="-20%" y="-20%" width="140%" height="140%" filterUnits="objectBoundingBox"><feTurbulence type="fractalNoise" baseFrequency="0.03" numOctaves="3" seed="1" result="f1"></feTurbulence><feDisplacementMap xChannelSelector="R" yChannelSelector="G" scale="5" in="SourceGraphic" in2="f1" result="f4"></feDisplacementMap><feTurbulence type="fractalNoise" baseFrequency="0.03" numOctaves="3" seed="10" result="f2"></feTurbulence><feDisplacementMap xChannelSelector="R" yChannelSelector="G" scale="5" in="SourceGraphic" in2="f2" result="f5"></feDisplacementMap><feTurbulence type="fractalNoise" baseFrequency="1.2" numOctaves="2" seed="100" result="f3"></feTurbulence><feDisplacementMap xChannelSelector="R" yChannelSelector="G" scale="3" in="SourceGraphic" in2="f3" result="f6"></feDisplacementMap><feBlend mode="multiply" in2="f4" in="f5" result="out1"></feBlend><feBlend mode="multiply" in="out1" in2="f6" result="out2"></feBlend></filter><g filter="url(#strokeStyle)"><path d="M 910.0698906673235 255.06989066732348 C839.7058391909691 490.0698906673235 675.0698906673235 763.2402268511031 440.0698906673235 725.0698906673235  C205.06989066732348 686.899554483544 58.27187589793223 490.0698906673235 -29.930109332676512 255.06989066732348  C-118.13209456328525 20.069890667323488 205.06989066732348 -45.261584183116966 440.0698906673235 -214.93010933267652  C675.0698906673235 -384.59863448223604 980.433942143678 20.069890667323488 910.0698906673235 255.06989066732348" fill="none" stroke-linecap="round" stroke="url(#linear-gradient-r5)" stroke-width="20" style="transform-origin: center center; transform: scale(1.2) translate(0px, 2px); transition: all 0.4s cubic-bezier(0.16, 1, 0.3, 1) 0s;"></path><path d="M 878.4032240006569 240.0698906673235 C822.6410325062394 452.5698906673235 665.9032240006569 695.3191664129288 453.40322400065685 665.0698906673235  C240.90322400065685 634.8206149217183 98.30164354049491 452.5698906673235 28.40322400065686 240.0698906673235  C-41.49519553918118 27.569890667323516 240.90322400065685 -50.470984375318366 453.40322400065685 -184.9301093326765  C665.9032240006569 -319.3892342900346 934.1654154950744 27.569890667323516 878.4032240006569 240.0698906673235" fill="none" stroke-linecap="round" stroke="url(#linear-gradient-r5)" stroke-width="10" style="transform-origin: center center; transform: scale(1.2) translate(0px, 2px); transition: all 0.4s cubic-bezier(0.16, 1, 0.3, 1) 0s;"></path><path d="M 840.0698906673235 232.56989066732348 C792.0389532604332 422.5698906673235 650.0698906673235 638.625198591984 460.0698906673235 612.5698906673235  C270.0698906673235 586.514582742663 140.2771121516984 422.5698906673235 80.06989066732349 232.56989066732348  C19.862669182948576 42.56989066732349 270.0698906673235 -31.61332305628598 460.0698906673235 -147.43010933267652  C650.0698906673235 -263.24689560906705 888.1008280742138 42.56989066732349 840.0698906673235 232.56989066732348" fill="none" stroke-linecap="round" stroke="url(#linear-gradient-r5)" stroke-width="6.666666666666667" style="transform-origin: center center; transform: scale(1.2) translate(0px, 2px); transition: all 0.4s cubic-bezier(0.16, 1, 0.3, 1) 0s;"></path><path d="M 799.0698906673235 228.06989066732348 C755.9263700329925 395.5698906673235 631.5698906673235 586.4739251453218 464.0698906673235 563.0698906673235  C296.5698906673235 539.6658561893253 183.15069030781166 395.5698906673235 129.06989066732348 228.06989066732348  C74.98909102683531 60.56989066732349 296.5698906673235 -2.8983294365685053 464.0698906673235 -106.93010933267651  C631.5698906673235 -210.96188922878451 842.2134113016546 60.56989066732349 799.0698906673235 228.06989066732348" fill="none" stroke-linecap="round" stroke="url(#linear-gradient-r5)" stroke-width="5" style="transform-origin: center center; transform: scale(1.2) translate(0px, 2px); transition: all 0.4s cubic-bezier(0.16, 1, 0.3, 1) 0s;"></path><path d="M 756.7365573339902 225.06989066732348 C717.0107705755795 370.0698906673235 611.7365573339902 536.6199095181174 466.7365573339901 515.0698906673235  C321.7365573339901 493.51987181652953 226.53319614915438 370.0698906673235 176.7365573339901 225.06989066732348  C126.93991851882586 80.06989066732349 321.7365573339901 30.860504031456696 466.7365573339901 -64.93010933267651  C611.7365573339902 -160.72072269680973 796.4623440924008 80.06989066732349 756.7365573339902 225.06989066732348" fill="none" stroke-linecap="round" stroke="url(#linear-gradient-r5)" stroke-width="4" style="transform-origin: center center; transform: scale(1.2) translate(0px, 2px); transition: all 0.4s cubic-bezier(0.16, 1, 0.3, 1) 0s;"></path><path d="M 713.6413192387521 222.92703352446634 C676.4665249091404 345.42703352446637 591.1413192387521 488.09321735486986 468.64131923875203 467.92703352446637  C346.14131923875203 447.76084969406287 270.24026559864404 345.42703352446637 223.64131923875203 222.92703352446634  C177.04237287886 100.42703352446635 346.14131923875203 67.56645016270511 468.64131923875203 -22.07296647553365  C591.1413192387521 -111.7123831137724 750.8161135683638 100.42703352446635 713.6413192387521 222.92703352446634" fill="none" stroke-linecap="round" stroke="url(#linear-gradient-r5)" stroke-width="3.3333333333333335" style="transform-origin: center center; transform: scale(1.2) translate(0px, 2px); transition: all 0.4s cubic-bezier(0.16, 1, 0.3, 1) 0s;"></path><path d="M 670.0698906673235 221.31989066732348 C634.8878649291463 321.3198906673235 570.0698906673235 440.40505875921326 470.0698906673235 421.3198906673235  C370.0698906673235 402.2347225754337 314.1708832826278 321.3198906673235 270.0698906673235 221.31989066732348  C225.9688980520191 121.31989066732349 370.0698906673235 106.15415324210325 470.0698906673235 21.319890667323488  C570.0698906673235 -63.514371907456265 705.2519164055008 121.31989066732349 670.0698906673235 221.31989066732348" fill="none" stroke-linecap="round" stroke="url(#linear-gradient-r5)" stroke-width="2.857142857142857" style="transform-origin: center center; transform: scale(1.2) translate(0px, 2px); transition: all 0.4s cubic-bezier(0.16, 1, 0.3, 1) 0s;"></path><path d="M 626.1810017784346 220.06989066732348 C592.6088172508775 297.5698906673235 548.6810017784346 393.2817693603997 471.18100177843456 375.0698906673235  C393.68100177843456 356.85801197424723 358.2640436404277 297.5698906673235 316.18100177843456 220.06989066732348  C274.0979599164414 142.56989066732348 393.68100177843456 146.0223502731159 471.18100177843456 65.06989066732349  C548.6810017784346 -15.882568938468939 659.7531863059918 142.56989066732348 626.1810017784346 220.06989066732348" fill="none" stroke-linecap="round" stroke="url(#linear-gradient-r5)" stroke-width="2.5" style="transform-origin: center center; transform: scale(1.2) translate(0px, 2px); transition: all 0.4s cubic-bezier(0.16, 1, 0.3, 1) 0s;"></path><path d="M 582.0698906673235 219.06989066732348 C549.8321142684464 274.0698906673235 527.0698906673235 346.55789394661406 472.0698906673235 329.0698906673235  C417.0698906673235 311.5818873880329 402.4802396756798 274.0698906673235 362.0698906673235 219.06989066732348  C321.65954165896716 164.06989066732348 417.0698906673235 186.8046978726313 472.0698906673235 109.06989066732349  C527.0698906673235 31.33508346201567 614.3076670662007 164.06989066732348 582.0698906673235 219.06989066732348" fill="none" stroke-linecap="round" stroke="url(#linear-gradient-r5)" stroke-width="2.2222222222222223" style="transform-origin: center center; transform: scale(1.2) translate(0px, 2px); transition: all 0.4s cubic-bezier(0.16, 1, 0.3, 1) 0s;"></path><path d="M 537.7971633945963 218.25170884914166 C506.6882234917658 250.75170884914166 505.2971633945962 300.1273530097265 472.7971633945962 283.25170884914166  C440.2971633945962 266.3760646885568 446.79250548019803 250.75170884914166 407.7971633945962 218.25170884914166  C368.8018213089944 185.75170884914166 440.2971633945962 228.2645576196993 472.7971633945962 153.25170884914166  C505.2971633945962 78.23886007858403 568.9061032974266 185.75170884914166 537.7971633945963 218.25170884914166" fill="none" stroke-linecap="round" stroke="url(#linear-gradient-r5)" stroke-width="2" style="transform-origin: center center; transform: scale(1.2) translate(0px, 2px); transition: all 0.4s cubic-bezier(0.16, 1, 0.3, 1) 0s;"></path></g></g></svg>