<?xml version="1.0" encoding="utf-8"?><svg xmlns="http://www.w3.org/2000/svg" xmlns:xlink="http://www.w3.org/1999/xlink" width="3000" height="919" preserveAspectRatio="xMidYMid" viewBox="0 0 3000 919" style="z-index:1;margin-right:-2px;display:block;background-repeat-y:initial;background-repeat-x:initial;background-color:rgb(34, 35, 35);animation-play-state:paused" ><g transform="translate(1500,459.5) scale(1,1) translate(-1500,-459.5)" style="transform:matrix(1, 0, 0, 1, 0, 0);animation-play-state:paused" ><path d="M 0 446.404 Q 18.29 446.4 36.59 446.4 Q 54.88 446.4 73.17 446.4 Q 91.46 446.4 109.76 446.4 Q 128.05 446.4 146.34 446.4 Q 164.63 446.4 182.93 446.4 Q 201.22 446.4 219.51 446.4 Q 237.8 446.4 256.1 446.4 Q 274.39 446.4 292.68 446.4 Q 310.98 446.4 329.27 446.4 Q 347.56 446.4 365.85 446.4 Q 384.15 446.4 402.44 446.4 Q 420.73 446.4 439.02 446.4 Q 457.32 446.4 475.61 446.4 Q 493.9 446.4 512.2 446.4 Q 530.49 446.4 548.78 446.4 Q 567.07 446.4 585.37 446.4 Q 603.66 446.4 621.95 446.4 Q 640.24 446.4 658.54 446.4 Q 676.83 446.4 695.12 446.4 Q 713.41 446.4 731.71 446.4 Q 750 446.4 768.29 446.4 Q 786.59 446.4 804.88 446.4 Q 823.17 446.4 841.46 446.4 Q 859.76 446.4 878.05 446.4 Q 896.34 446.4 914.63 446.4 Q 932.93 446.4 951.22 446.4 Q 969.51 446.4 987.8 446.4 Q 1006.1 446.4 1024.39 446.4 Q 1042.68 446.4 1060.98 446.4 Q 1079.27 446.4 1097.56 446.4 Q 1115.85 446.4 1134.15 446.4 Q 1152.44 446.4 1170.73 446.4 Q 1189.02 446.4 1207.32 446.4 Q 1225.61 446.4 1243.9 446.4 Q 1262.2 446.4 1280.49 446.4 Q 1298.78 446.4 1317.07 446.4 Q 1335.37 446.4 1353.66 446.4 Q 1371.95 446.4 1390.24 446.4 Q 1408.54 446.4 1426.83 446.4 Q 1445.12 446.4 1463.41 446.4 Q 1481.71 446.4 1500 446.4 Q 1518.29 446.4 1536.59 446.4 Q 1554.88 446.4 1573.17 446.4 Q 1591.46 446.4 1609.76 446.4 Q 1628.05 446.4 1646.34 446.4 Q 1664.63 446.4 1682.93 446.4 Q 1701.22 446.4 1719.51 446.4 Q 1737.8 446.4 1756.1 446.4 Q 1774.39 446.4 1792.68 446.4 Q 1810.98 446.4 1829.27 446.4 Q 1847.56 446.4 1865.85 446.4 Q 1884.15 446.4 1902.44 446.4 Q 1920.73 446.4 1939.02 446.4 Q 1957.32 446.4 1975.61 446.4 Q 1993.9 446.4 2012.2 446.4 Q 2030.49 446.4 2048.78 446.4 Q 2067.07 446.4 2085.37 446.4 Q 2103.66 446.4 2121.95 446.4 Q 2140.24 446.4 2158.54 446.4 Q 2176.83 446.4 2195.12 446.4 Q 2213.41 446.4 2231.71 446.4 Q 2250 446.4 2268.29 446.4 Q 2286.59 446.4 2304.88 446.4 Q 2323.17 446.4 2341.46 446.4 Q 2359.76 446.4 2378.05 446.4 Q 2396.34 446.4 2414.63 446.4 Q 2432.93 446.4 2451.22 446.4 Q 2469.51 446.4 2487.8 446.4 Q 2506.1 446.4 2524.39 446.4 Q 2542.68 446.4 2560.98 446.4 Q 2579.27 446.4 2597.56 446.4 Q 2615.85 446.4 2634.15 446.4 Q 2652.44 446.4 2670.73 446.4 Q 2689.02 446.4 2707.32 446.4 Q 2725.61 446.4 2743.9 446.4 Q 2762.2 446.4 2780.49 446.4 Q 2798.78 446.4 2817.07 446.4 Q 2835.37 446.4 2853.66 446.4 Q 2871.95 446.4 2890.24 446.4 Q 2908.54 446.4 2926.83 446.4 L 3000 446.404" fill="none" stroke="#d66168" stroke-width="1" style="animation-play-state:paused" ></path>
<path d="M 0 455.135 Q 18.29 455.13 36.59 455.01 Q 54.88 455.01 73.17 454.6 Q 91.46 454.6 109.76 454.45 Q 128.05 454.45 146.34 456.088 Q 164.63 456.088 182.93 455.748 Q 201.22 455.748 219.51 453.192 Q 237.8 453.192 256.1 454.18 Q 274.39 454.18 292.68 457.467 Q 310.98 457.467 329.27 456.248 Q 347.56 456.248 365.85 458.186 Q 384.15 458.186 402.44 456.467 Q 420.73 456.467 439.02 459.007 Q 457.32 459.007 475.61 457.174 Q 493.9 457.174 512.2 457.555 Q 530.49 457.555 548.78 459.379 Q 567.07 459.379 585.37 453.257 Q 603.66 453.257 621.95 450.67 Q 640.24 450.67 658.54 453.226 Q 676.83 453.226 695.12 453.389 Q 713.41 453.389 731.71 451.019 Q 750 451.019 768.29 453.815 Q 786.59 453.815 804.88 460.275 Q 823.17 460.275 841.46 451.363 Q 859.76 451.363 878.05 460.352 Q 896.34 460.352 914.63 459.241 Q 932.93 459.241 951.22 450.503 Q 969.51 450.503 987.8 461.528 Q 1006.1 461.528 1024.39 446.852 Q 1042.68 446.852 1060.98 458.633 Q 1079.27 458.633 1097.56 461.825 Q 1115.85 461.825 1134.15 451.662 Q 1152.44 451.662 1170.73 460.27 Q 1189.02 460.27 1207.32 460.186 Q 1225.61 460.186 1243.9 450.173 Q 1262.2 450.173 1280.49 458.697 Q 1298.78 458.697 1317.07 448.318 Q 1335.37 448.318 1353.66 445.493 Q 1371.95 445.493 1390.24 453.71 Q 1408.54 453.71 1426.83 449.798 Q 1445.12 449.798 1463.41 448.124 Q 1481.71 448.124 1500 444.883 Q 1518.29 444.883 1536.59 448.409 Q 1554.88 448.409 1573.17 453.797 Q 1591.46 453.797 1609.76 443.084 Q 1628.05 443.084 1646.34 457.311 Q 1664.63 457.311 1682.93 462.525 Q 1701.22 462.525 1719.51 445.848 Q 1737.8 445.848 1756.1 450.921 Q 1774.39 450.921 1792.68 461.688 Q 1810.98 461.688 1829.27 451.061 Q 1847.56 451.061 1865.85 460.548 Q 1884.15 460.548 1902.44 448.045 Q 1920.73 448.045 1939.02 451.794 Q 1957.32 451.794 1975.61 453.757 Q 1993.9 453.757 2012.2 461.748 Q 2030.49 461.748 2048.78 451.848 Q 2067.07 451.848 2085.37 460.315 Q 2103.66 460.315 2121.95 451.895 Q 2140.24 451.895 2158.54 451.079 Q 2176.83 451.079 2195.12 453.751 Q 2213.41 453.751 2231.71 455.634 Q 2250 455.634 2268.29 457.287 Q 2286.59 457.287 2304.88 458.261 Q 2323.17 458.261 2341.46 456.006 Q 2359.76 456.006 2378.05 454.555 Q 2396.34 454.555 2414.63 459.241 Q 2432.93 459.241 2451.22 454.024 Q 2469.51 454.024 2487.8 457.87 Q 2506.1 457.87 2524.39 453.593 Q 2542.68 453.593 2560.98 455.423 Q 2579.27 455.423 2597.56 454.693 Q 2615.85 454.693 2634.15 455.409 Q 2652.44 455.409 2670.73 453.504 Q 2689.02 453.504 2707.32 457.527 Q 2725.61 457.527 2743.9 457.206 Q 2762.2 457.206 2780.49 453.192 Q 2798.78 453.192 2817.07 456.118 Q 2835.37 456.118 2853.66 454.1 Q 2871.95 454.1 2890.24 456.049 Q 2908.54 456.049 2926.83 455.48 L 3000 455.135" fill="none" stroke="#46bf19" stroke-width="1" style="animation-play-state:paused" ></path>
<path d="M 0 463.865 Q 18.29 463.87 36.59 464.08 Q 54.88 464.08 73.17 464.25 Q 91.46 464.25 109.76 464.59 Q 128.05 464.59 146.34 464.788 Q 164.63 464.788 182.93 463.479 Q 201.22 463.479 219.51 462.61 Q 237.8 462.61 256.1 465.62 Q 274.39 465.62 292.68 463.289 Q 310.98 463.289 329.27 465.73 Q 347.56 465.73 365.85 462.329 Q 384.15 462.329 402.44 461.503 Q 420.73 461.503 439.02 467.648 Q 457.32 467.648 475.61 462.55 Q 493.9 462.55 512.2 465.606 Q 530.49 465.606 548.78 459.187 Q 567.07 459.187 585.37 465.32 Q 603.66 465.32 621.95 460.089 Q 640.24 460.089 658.54 464.574 Q 676.83 464.574 695.12 464.256 Q 713.41 464.256 731.71 466.859 Q 750 466.859 768.29 461.231 Q 786.59 461.231 804.88 458.184 Q 823.17 458.184 841.46 460.428 Q 859.76 460.428 878.05 458.43 Q 896.34 458.43 914.63 457.531 Q 932.93 457.531 951.22 465.735 Q 969.51 465.735 987.8 457.895 Q 1006.1 457.895 1024.39 470.355 Q 1042.68 470.355 1060.98 457.955 Q 1079.27 457.955 1097.56 461.276 Q 1115.85 461.276 1134.15 463.129 Q 1152.44 463.129 1170.73 471.16 Q 1189.02 471.16 1207.32 460.743 Q 1225.61 460.743 1243.9 473.214 Q 1262.2 473.214 1280.49 454.117 Q 1298.78 454.117 1317.07 470.092 Q 1335.37 470.092 1353.66 472.726 Q 1371.95 472.726 1390.24 462.919 Q 1408.54 462.919 1426.83 462.762 Q 1445.12 462.762 1463.41 457.635 Q 1481.71 457.635 1500 472.592 Q 1518.29 472.592 1536.59 470.53 Q 1554.88 470.53 1573.17 470.196 Q 1591.46 470.196 1609.76 451.852 Q 1628.05 451.852 1646.34 463.506 Q 1664.63 463.506 1682.93 463.461 Q 1701.22 463.461 1719.51 460.423 Q 1737.8 460.423 1756.1 469.536 Q 1774.39 469.536 1792.68 473.609 Q 1810.98 473.609 1829.27 463.868 Q 1847.56 463.868 1865.85 462.484 Q 1884.15 462.484 1902.44 454.584 Q 1920.73 454.584 1939.02 471.231 Q 1957.32 471.231 1975.61 472.215 Q 1993.9 472.215 2012.2 469.983 Q 2030.49 469.983 2048.78 467.116 Q 2067.07 467.116 2085.37 456.186 Q 2103.66 456.186 2121.95 467.885 Q 2140.24 467.885 2158.54 470.355 Q 2176.83 470.355 2195.12 468.127 Q 2213.41 468.127 2231.71 462.355 Q 2250 462.355 2268.29 467.53 Q 2286.59 467.53 2304.88 467.35 Q 2323.17 467.35 2341.46 465.653 Q 2359.76 465.653 2378.05 467.882 Q 2396.34 467.882 2414.63 459.186 Q 2432.93 459.186 2451.22 461.032 Q 2469.51 461.032 2487.8 461.545 Q 2506.1 461.545 2524.39 461.835 Q 2542.68 461.835 2560.98 465.176 Q 2579.27 465.176 2597.56 461.622 Q 2615.85 461.622 2634.15 465.458 Q 2652.44 465.458 2670.73 463.462 Q 2689.02 463.462 2707.32 463.579 Q 2725.61 463.579 2743.9 464.988 Q 2762.2 464.988 2780.49 465.177 Q 2798.78 465.177 2817.07 465.349 Q 2835.37 465.349 2853.66 463.7 Q 2871.95 463.7 2890.24 463.88 Q 2908.54 463.88 2926.83 463.281 L 3000 463.865" fill="none" stroke="#5e6fa3" stroke-width="1" style="animation-play-state:paused" ></path></g></svg>