<svg width="126" height="126" viewBox="0 0 126 126" fill="none" xmlns="http://www.w3.org/2000/svg">
<path d="M124.907 114.562L115.478 66.0788C115.201 64.5874 113.89 63.5004 112.377 63.5004H107.259L106.805 60.7198C106.578 59.3548 105.519 58.2932 104.158 58.0909C103.906 58.0404 103.679 58.0151 103.427 57.9898C103.275 57.9645 103.099 57.9393 102.948 57.9393L101.738 57.7623L101.99 56.5742C102.645 53.5409 102.116 50.4317 100.502 47.7775L100.2 47.2972L100.401 46.7664C101.208 44.6683 101.057 42.3174 99.998 40.3457C98.9391 38.374 97.0482 36.9585 94.8548 36.4782L94.1236 36.3265L93.9976 35.5682C92.4848 27.4792 85.4255 21.5641 77.2317 21.5136C77.1561 21.5136 77.0552 21.5136 76.9796 21.5389C76.8788 21.5389 76.7779 21.5641 76.6771 21.5641L76.0216 21.5894L75.6686 21.0333C74.4332 19.1122 72.4415 17.8483 70.1724 17.5449C67.9034 17.2669 65.6595 17.9999 63.9955 19.5672L63.34 20.1738L62.5837 19.6936C60.365 18.2527 57.7934 17.4944 55.1714 17.4944C50.9106 17.5196 46.9524 19.4661 44.3303 22.8533L43.8513 23.46L43.1202 23.2325C40.2965 22.4236 37.3215 22.9039 34.9264 24.5975C32.5312 26.2911 31.0437 28.9453 30.8673 31.8776L30.8168 32.5854L30.1613 32.8634C27.2872 34.0768 25.4467 36.8826 25.4215 39.9918C25.4215 40.5227 25.4971 41.0535 25.598 41.5844L25.6988 42.0646L25.4215 42.4691C22.6986 46.5894 21.9927 51.6703 23.4802 56.372L23.8836 57.6612L22.5474 57.8382C22.3205 57.8634 22.0683 57.8887 21.8414 57.9393C21.5137 57.9898 21.1607 58.0404 20.833 58.0657C19.4715 58.2679 18.3874 59.3296 18.1605 60.6946L17.7067 63.4752H12.6391C11.1264 63.4752 9.81542 64.5621 9.53809 66.0535L0.108881 114.562C-0.19366 116.129 0.209728 117.747 1.2182 118.986C2.22667 120.224 3.73938 120.932 5.32772 120.932H50.835L51.1627 121.488C52.5242 123.738 57.0875 125.255 62.4828 125.255C67.8529 125.255 72.3658 123.738 73.7525 121.488L74.0802 120.957H119.638C121.226 120.957 122.714 120.25 123.747 119.011C124.806 117.747 125.21 116.129 124.907 114.562ZM25.951 45.8563L26.6065 44.2891L27.7914 45.5025C28.1948 45.9322 28.6738 46.2861 29.1781 46.6147C29.6571 46.8927 30.2622 46.7411 30.5647 46.2608C30.842 45.8058 30.716 45.2497 30.3126 44.9211L30.237 44.8705C28.0687 43.556 27.0099 40.9271 27.6906 38.4752C28.3713 36.0232 30.6151 34.3043 33.1363 34.3043H33.1615C34.9264 34.3043 36.6155 35.1637 37.6744 36.6046C37.8761 36.8826 38.2543 37.0343 38.6073 37.009C38.9602 36.9585 39.288 36.731 39.4141 36.4024C39.5653 36.0737 39.5149 35.6946 39.288 35.3912C38.0274 33.6976 36.0861 32.6106 33.9935 32.3831L32.7329 32.2568L32.985 31.0181C33.7414 27.5045 36.8929 24.9261 40.4729 24.9261H40.4982H40.5234C40.8259 24.9514 41.1285 24.9767 41.431 25.0272L42.8176 25.2547L42.3134 26.5692C42.1621 26.9736 42.0109 27.3781 41.91 27.7825C41.784 28.3134 42.1117 28.8442 42.6412 28.9959C43.1706 29.1223 43.7253 28.8189 43.8765 28.2881C44.1539 27.2517 44.5573 26.2659 45.1119 25.3053C47.2045 21.7664 51.0619 19.5672 55.1462 19.5419C57.4153 19.5419 59.5835 20.2244 61.4744 21.463L62.2307 21.9433L61.9282 22.7775C61.6508 23.5611 61.4996 24.3953 61.4996 25.2295C61.4996 25.7856 61.9534 26.2406 62.508 26.2406C63.0627 26.2406 63.5165 25.7856 63.5165 25.2295C63.5165 22.095 66.0629 19.5419 69.1639 19.5419C72.2902 19.5419 74.8366 22.095 74.8366 25.2295C74.8366 25.7856 75.2904 26.2406 75.8451 26.2406C76.3997 26.2406 76.8535 25.7856 76.8535 25.2295C76.8535 25.2042 76.8535 25.1536 76.8283 25.1283C76.8031 25.0272 76.8031 24.9261 76.8031 24.7997L76.7275 23.5358L77.9881 23.6117C84.5936 24.0161 90.2662 28.8189 91.7537 35.2901L92.0058 36.3518L90.9721 36.6551C90.0897 36.9079 89.283 37.3124 88.5518 37.8685C88.2745 38.096 88.098 38.4499 88.1484 38.8038C88.1988 39.1577 88.4258 39.4863 88.7535 39.6127C89.0813 39.7643 89.4846 39.7138 89.762 39.4863C91.905 37.8938 94.9052 38.0202 96.8969 39.7896C98.8886 41.5591 99.3929 44.5166 98.0819 46.8422C97.502 47.8786 96.6196 48.6875 95.5355 49.1931C95.1321 49.3953 94.9052 49.8756 95.006 50.3306C95.1069 50.7856 95.5103 51.1142 95.9893 51.1395C96.1153 51.1395 96.2666 51.1142 96.4179 51.0384C96.8969 50.8108 97.3759 50.5075 97.8045 50.1536L99.0399 49.1678L99.5694 50.6592C100.83 54.2234 100.048 58.192 97.5272 60.9979L97.4516 61.0737C94.3505 64.461 89.283 65.371 85.1482 63.3235L85.123 63.2982C84.7196 63.0707 84.3162 62.8432 83.9381 62.5651L83.0304 61.9079L83.6859 60.9979C85.0222 59.1021 85.2239 56.6501 84.165 54.5773C84.0137 54.2487 83.6859 54.0464 83.3078 54.0212C82.9548 53.9959 82.6018 54.1728 82.4001 54.4762C82.1984 54.7795 82.1732 55.184 82.3497 55.4873C83.3078 57.4084 82.7027 59.7846 80.9379 60.9979C79.879 61.7057 78.6184 61.9079 77.4082 61.6046C76.198 61.3012 75.1896 60.4923 74.6097 59.3801C74.4332 59.0262 74.1055 58.824 73.7525 58.7987C73.3995 58.7734 73.0466 58.9504 72.8449 59.2537C72.6432 59.5571 72.618 59.9362 72.7944 60.2648C73.8786 62.4388 76.0468 63.8038 78.4671 63.8038H78.4923C79.2739 63.8038 80.0302 63.6521 80.7614 63.3488L81.4169 63.096L81.9463 63.551C82.6523 64.1577 83.4086 64.6885 84.2406 65.1182C87.0643 66.5844 90.2914 66.8877 93.3168 65.9524L96.5692 64.9666L94.5522 67.7219C92.2327 70.8816 88.8291 72.9797 84.9717 73.6117C84.4675 73.6875 84.0893 74.1678 84.1145 74.6986C84.165 75.2295 84.5936 75.6339 85.123 75.6339C85.1734 75.6339 85.2239 75.6339 85.2995 75.6339C86.5097 75.4317 87.6946 75.0778 88.8543 74.5975L89.7872 74.1931L90.2914 75.0778C90.9974 76.3164 91.552 77.6309 91.9806 78.9959C92.0815 79.3245 92.1319 79.6784 92.1571 80.0323C92.1571 81.4226 91.3251 82.6865 90.0645 83.2173L90.0393 83.2426C89.6107 83.3943 89.1821 83.4954 88.7535 83.4954C87.6946 83.4954 86.6861 83.0151 85.9802 82.1809C84.4423 80.3862 82.4506 79.0464 80.2067 78.3387C75.6938 76.822 73.3491 75.3053 72.3406 73.283L71.6095 71.8422L73.1978 71.64C74.2567 71.5136 75.2904 71.2861 76.3241 70.9827C76.6519 70.8816 76.9292 70.6036 77.0048 70.2497C77.0805 69.8958 76.9796 69.5166 76.7023 69.2638C76.4249 69.0111 76.0468 68.9352 75.719 69.0363C74.4332 69.4408 73.097 69.6683 71.7355 69.7694C69.1639 69.9716 66.5167 69.5672 64.1216 68.6066C63.7182 68.4549 63.2644 68.556 62.9871 68.8847C59.4322 72.9797 53.4822 73.6622 49.0954 70.4772C44.7337 67.2921 43.5236 61.4024 46.2969 56.7512C46.4986 56.4479 46.4986 56.0434 46.3221 55.7148C46.1456 55.3862 45.8178 55.184 45.4397 55.184C45.0867 55.184 44.7337 55.3609 44.5573 55.6895C44.1034 56.4731 43.7253 57.3326 43.4227 58.2173L43.1706 59.0515L42.2882 59.0009C40.0191 58.8745 38.2039 57.004 38.1535 54.7037V54.6278C38.1535 54.3751 38.0526 54.097 37.8509 53.92C37.6744 53.7431 37.3971 53.642 37.145 53.642C36.5651 53.642 36.1113 54.1223 36.1113 54.6784C36.1113 57.9393 38.5568 60.644 41.784 60.9979L42.7924 61.099V62.1101C42.7924 62.7674 42.8681 63.4246 42.9689 64.0818L43.1454 65.1435L42.0865 65.371C36.8424 66.5085 31.4723 64.6379 28.0435 60.4923C24.6399 56.4479 23.8332 50.7856 25.951 45.8563ZM50.8098 118.859H5.32772C4.34446 118.859 3.41162 118.43 2.78133 117.646C2.15104 116.888 1.89892 115.902 2.10061 114.941L11.7063 65.5227H17.4042L10.4457 107.535C10.2692 108.622 10.6726 109.709 11.5046 110.442C12.3366 111.175 13.4711 111.402 14.53 111.074C26.1274 107.307 38.6073 106.524 50.6081 108.773L51.6166 108.976L50.8098 118.859ZM72.0633 120.427C71.2061 121.766 67.3991 123.182 62.508 123.182C57.617 123.182 53.81 121.792 52.9528 120.427L52.7511 120.098L53.6335 109.431L54.9193 109.759C57.3396 110.366 59.7095 111.175 62.0038 112.135L62.0542 112.161C62.1803 112.237 62.3568 112.262 62.508 112.262C62.6593 112.262 62.8106 112.237 62.9366 112.161L62.9871 112.135C65.2813 111.15 67.6765 110.341 70.0716 109.734L71.3574 109.405L72.2398 120.098L72.0633 120.427ZM65.004 109.127L63.5165 109.633V81.1192C63.5165 80.5884 63.1383 80.1081 62.6089 80.0576C62.0038 80.007 61.4744 80.462 61.4744 81.0687V109.658L59.9869 109.153C45.1371 104.173 28.7747 104.173 13.9249 109.127C13.7989 109.178 13.6728 109.178 13.572 109.178C12.8913 109.178 12.3366 108.571 12.4627 107.863L20.3539 60.189L21.1607 60.0626C21.9675 59.9362 22.8247 59.8351 23.6315 59.734L24.9425 59.5571L25.3207 60.189C29.052 66.1546 36.1365 69.0363 42.9437 67.368L43.8009 67.1658L44.2043 67.9494C45.9943 71.3366 49.2971 73.738 53.0536 74.3953C56.8102 75.0272 60.7432 73.8644 63.5417 71.2355L64.0207 70.7805L64.651 70.9575C66.0377 71.3619 67.4496 71.6147 68.8866 71.7158L69.6934 71.7664L69.8951 72.55C70.8279 76.0636 73.5004 78.2123 79.5008 80.2345C81.3917 80.8159 83.0809 81.9534 84.3667 83.4701C85.4508 84.7593 87.0391 85.5176 88.7031 85.5176C89.4342 85.5176 90.1402 85.366 90.7957 85.0879C92.8126 84.2284 94.1236 82.2315 94.1236 80.0323C94.1236 79.4509 94.0228 78.8948 93.8463 78.3387C93.3925 76.8725 92.7622 75.4822 92.031 74.1425L91.5268 73.2578L92.3588 72.6511C95.7876 70.1738 98.1827 66.5338 99.0651 62.3882L99.1155 62.1101L99.292 61.8826C99.7206 61.3771 100.099 60.8462 100.427 60.2901L100.805 59.6582L102.015 59.8098C102.57 59.8857 103.175 59.9615 103.755 60.0626L104.561 60.189L112.453 107.838C112.579 108.672 111.772 109.38 110.965 109.102C103.528 106.625 95.7372 105.361 87.9467 105.361C80.2319 105.411 72.4415 106.65 65.004 109.127ZM122.21 117.671C121.579 118.43 120.646 118.885 119.663 118.885H74.2063L73.3995 108.976L74.408 108.773C86.4088 106.498 98.9138 107.307 110.511 111.099C111.545 111.428 112.679 111.175 113.537 110.442C114.369 109.709 114.772 108.622 114.596 107.535L107.637 65.548H113.36L122.966 114.967C123.092 115.927 122.84 116.913 122.21 117.671Z" fill="black"/>
<path d="M72.265 120.098L72.0633 120.427C71.2061 121.766 67.3991 123.182 62.508 123.182C57.617 123.182 53.81 121.792 52.9528 120.427L52.7511 120.098L53.6335 109.431L54.9193 109.759C57.3396 110.366 59.7095 111.175 62.0038 112.135L62.0542 112.161C62.1803 112.237 62.3568 112.262 62.508 112.262C62.6593 112.262 62.8106 112.237 62.9366 112.161L62.9871 112.135C65.2813 111.15 67.6765 110.341 70.0716 109.734L71.3574 109.405L72.265 120.098Z" fill="black"/>
<path d="M76.3997 44.5924C75.4669 49.4458 71.5591 53.2375 66.7184 54.0464L66.0629 54.1475L65.836 54.7542C64.4493 58.4701 60.8693 60.9473 56.911 60.9473H56.8858C56.3311 60.9473 55.8773 60.4923 55.8773 59.9362C55.8773 59.3801 56.3311 58.9251 56.8858 58.9251C59.3313 58.9251 61.6256 57.737 63.0375 55.74L64.0459 54.3245L62.3568 53.9706C59.9112 53.4397 57.743 52.2011 56.0538 50.3305C55.8773 50.1283 55.8017 49.9008 55.8017 49.648C55.8017 49.37 55.9278 49.0919 56.1295 48.8897C56.5581 48.5105 57.1883 48.5358 57.5665 48.9655C60.9197 52.555 66.2898 53.1617 70.3741 50.4317C72.4919 48.9655 73.929 46.7663 74.408 44.2133C74.4584 43.8594 74.7105 43.556 75.0635 43.4296C75.4165 43.3032 75.7946 43.3791 76.072 43.6319C76.3745 43.8341 76.5006 44.2133 76.3997 44.5924Z" fill="black"/>
<path d="M56.6338 35.7704C56.6338 36.3265 56.18 36.7815 55.6253 36.7815C53.8353 36.7815 52.1461 37.4893 50.8603 38.7532C49.5745 40.0171 48.8938 41.736 48.8938 43.5307C48.8938 44.0869 48.44 44.5419 47.8853 44.5419C47.608 44.5419 47.3559 44.4408 47.1794 44.2385C46.9777 44.0363 46.8768 43.7835 46.8768 43.5307C46.8768 38.6774 50.8099 34.7593 55.6505 34.734C56.18 34.734 56.6338 35.189 56.6338 35.7704Z" fill="black"/>
<path d="M63.5166 1.24055V3.38919C63.5166 3.94531 63.0628 4.40031 62.5081 4.40031C61.9534 4.40031 61.4996 3.94531 61.4996 3.38919V1.24055C61.4996 0.684436 61.9534 0.229431 62.5081 0.229431C63.0628 0.229431 63.5166 0.684436 63.5166 1.24055Z" fill="black"/>
<path d="M100.048 16.8118L97.8803 18.9857C97.6281 19.2385 97.25 19.3649 96.897 19.2638C96.544 19.1627 96.2667 18.8846 96.1658 18.5307C96.065 18.1768 96.1658 17.7977 96.4432 17.5196L98.5862 15.371H98.6114C98.8131 15.1688 99.0652 15.0676 99.3425 15.0676C99.4182 15.0676 99.519 15.0676 99.5947 15.0929C99.9476 15.194 100.225 15.4721 100.326 15.826C100.427 16.1546 100.326 16.5338 100.048 16.8118Z" fill="black"/>
<path d="M28.7746 18.6319C28.6233 19.011 28.2451 19.2638 27.8417 19.2638C27.5644 19.2638 27.3123 19.1627 27.1358 18.9605L24.9676 16.7866C24.6903 16.5338 24.5894 16.1546 24.6903 15.8007C24.7911 15.4468 25.0684 15.1688 25.4214 15.0677C25.497 15.0424 25.5979 15.0424 25.6735 15.0424C25.9508 15.0424 26.203 15.1435 26.4299 15.371L28.5729 17.5196C28.8502 17.823 28.9258 18.2527 28.7746 18.6319Z" fill="black"/>
<path d="M45.3387 9.55702C45.2378 9.8098 45.0361 10.012 44.784 10.1131C44.658 10.1637 44.5319 10.189 44.3806 10.189C43.9772 10.189 43.5991 9.93619 43.4478 9.55702L40.977 3.54084C40.8258 3.21223 40.8762 2.80778 41.1031 2.50444C41.3048 2.25166 41.6073 2.09999 41.9099 2.09999C41.9603 2.09999 42.0107 2.09999 42.0611 2.09999C42.4141 2.15055 42.7419 2.40333 42.8679 2.75722L45.3387 8.74812C45.4395 9.02618 45.4395 9.30424 45.3387 9.55702Z" fill="black"/>
<path d="M84.0389 3.59142L81.5681 9.58232C81.4925 9.78455 81.3664 9.93622 81.19 10.0373C81.0387 10.1384 80.837 10.2143 80.6353 10.2143C80.5092 10.2143 80.358 10.189 80.2571 10.1384C80.005 10.0373 79.8033 9.8351 79.7025 9.58232C79.6016 9.32954 79.6016 9.05149 79.7025 8.7987L82.1732 2.83308C82.3245 2.42863 82.7279 2.20113 83.1061 2.20113C83.2321 2.20113 83.3582 2.22641 83.4842 2.27696C83.7364 2.37808 83.938 2.5803 84.0389 2.83308C84.1397 3.06058 84.1397 3.33864 84.0389 3.59142Z" fill="black"/>
<path d="M113.209 32.5095C113.159 32.8634 112.932 33.192 112.579 33.3184L106.603 35.7956C106.477 35.8462 106.351 35.8715 106.225 35.8715C105.746 35.8715 105.318 35.5176 105.217 35.0626C105.116 34.5823 105.368 34.102 105.822 33.9251L111.797 31.4478C111.923 31.3973 112.049 31.372 112.175 31.372C112.402 31.372 112.604 31.4478 112.806 31.5742C113.108 31.8017 113.259 32.1556 113.209 32.5095Z" fill="black"/>
<path d="M19.7235 35.2396C19.5218 35.7704 18.9167 35.9979 18.3873 35.7957L12.4121 33.3184C12.16 33.2173 11.9583 33.0151 11.8574 32.7623C11.7566 32.5095 11.7566 32.2315 11.8574 31.9787C11.9583 31.7259 12.16 31.5237 12.4121 31.4226C12.5382 31.372 12.6642 31.3467 12.7903 31.3467C12.9163 31.3467 13.0676 31.372 13.1684 31.4226L19.1436 33.8998C19.3958 34.0009 19.5975 34.2032 19.6983 34.4559C19.8244 34.7087 19.8244 34.9868 19.7235 35.2396Z" fill="black"/>
</svg>
