<svg width="50" height="50" viewBox="0 0 50 50" fill="none" xmlns="http://www.w3.org/2000/svg">
<mask id="mask0_3027_18" style="mask-type:alpha" maskUnits="userSpaceOnUse" x="2" y="2" width="46" height="46">
<path d="M37.5 8.33333C40.6791 13.0385 43.7364 14.3854 45.8333 13.5417C45.2677 15.451 41.2052 18.099 38.6177 19.6229C37.5031 20.2792 37.1771 21.774 37.9531 22.8094C39.3729 24.7052 41.3385 27.3844 41.6666 28.125C49.0062 41.4479 32.8312 46.5083 25 45.8333C1.93332 43.8458 2.75519 25.8365 6.24998 18.75C14.6375 33.3271 27.5844 24.9115 27.0833 21.875C26.5823 18.8385 23.1333 19.4427 21.875 14.5833C19.7781 4.96667 32.9437 0.415626 37.5 8.33333Z" fill="white" stroke="white" stroke-width="4.16667" stroke-linecap="round" stroke-linejoin="round"/>
<path d="M30.2083 32.2917C27.6041 35.9375 19.7916 39.5833 13.5416 34.375" stroke="black" stroke-width="4.16667" stroke-linecap="round" stroke-linejoin="round"/>
<path d="M32.2917 14.5833C31.1411 14.5833 30.2083 13.6506 30.2083 12.5C30.2083 11.3494 31.1411 10.4167 32.2917 10.4167C33.4423 10.4167 34.375 11.3494 34.375 12.5C34.375 13.6506 33.4423 14.5833 32.2917 14.5833Z" fill="black"/>
</mask>
<g mask="url(#mask0_3027_18)">
<path d="M50 9.53674e-07H1.90735e-06V50H50V9.53674e-07Z" fill="#FFC700"/>
</g>
</svg>
