<svg width="31" height="36" viewBox="0 0 31 36" fill="none" xmlns="http://www.w3.org/2000/svg">
<path d="M23.0208 21.6458C22.5723 21.6458 22.2083 21.2818 22.2083 20.8333C22.2083 17.7219 20.9973 14.798 18.798 12.5978C18.4806 12.2804 18.4806 11.7658 18.798 11.4485C19.1154 11.1311 19.6299 11.1311 19.9475 11.4485C22.4532 13.9552 23.8333 17.2887 23.8333 20.8333C23.8333 21.2818 23.4693 21.6458 23.0208 21.6458V21.6458Z" fill="black"/>
<path d="M0.8125 21.6458C0.363998 21.6458 0 21.2818 0 20.8333C0 17.2887 1.38022 13.9552 3.88695 11.4494C4.20433 11.1321 4.71909 11.1321 5.03647 11.4494C5.35385 11.7668 5.35385 12.2816 5.03647 12.599C2.83621 14.798 1.625 17.7219 1.625 20.8333C1.625 21.2818 1.261 21.6458 0.8125 21.6458Z" fill="black"/>
<path d="M11.9166 36C9.6763 36 7.85413 34.1778 7.85413 31.9375C7.85413 31.489 8.21812 31.125 8.66663 31.125C9.11513 31.125 9.47913 31.489 9.47913 31.9375C9.47913 33.282 10.5721 34.375 11.9166 34.375C13.2609 34.375 14.3541 33.282 14.3541 31.9375C14.3541 31.489 14.7181 31.125 15.1666 31.125C15.6151 31.125 15.9791 31.489 15.9791 31.9375C15.9791 34.1778 14.157 36 11.9166 36V36Z" fill="black"/>
<path d="M20.8541 32.75H2.97913C1.93355 32.75 1.08316 31.8996 1.08316 30.8542C1.08316 30.2994 1.32477 29.7741 1.74629 29.4133C3.39391 28.0212 4.33316 25.9977 4.33316 23.8538V20.8333C4.33316 16.6517 7.73491 13.25 11.9166 13.25C16.0981 13.25 19.4999 16.6517 19.4999 20.8333V23.8538C19.4999 25.9977 20.4391 28.0212 22.076 29.4058C22.5083 29.7741 22.7499 30.2994 22.7499 30.8542C22.7499 31.8996 21.8995 32.75 20.8541 32.75V32.75ZM11.9166 14.875C8.63072 14.875 5.95816 17.5476 5.95816 20.8333V23.8538C5.95816 26.4763 4.80884 28.9529 2.80576 30.6461C2.76787 30.6787 2.70816 30.7459 2.70816 30.8542C2.70816 31.0014 2.83174 31.125 2.97913 31.125H20.8541C21.0013 31.125 21.1249 31.0014 21.1249 30.8542C21.1249 30.7459 21.0654 30.6787 21.0295 30.6483C19.0242 28.9529 17.8749 26.4763 17.8749 23.8538V20.8333C17.8749 17.5476 15.2023 14.875 11.9166 14.875V14.875Z" fill="black"/>
<path d="M11.9166 14.875C11.4681 14.875 11.1041 14.511 11.1041 14.0625V10.8125C11.1041 10.364 11.4681 10 11.9166 10C12.3651 10 12.7291 10.364 12.7291 10.8125V14.0625C12.7291 14.511 12.3651 14.875 11.9166 14.875Z" fill="black"/>
<path d="M30.6262 10.499C30.6262 14.9173 27.0445 18.499 22.6262 18.499C18.2079 18.499 14.6262 14.9173 14.6262 10.499C14.6262 6.08075 18.2079 2.49902 22.6262 2.49902C27.0445 2.49902 30.6262 6.08075 30.6262 10.499Z" fill="white"/>
<circle cx="22.6262" cy="10.499" r="7" fill="#F45B5B"/>
<path d="M23.1965 6.85156V14H22.2932V7.97949L20.4719 8.64355V7.82812L23.0549 6.85156H23.1965Z" fill="white"/>
</svg>
